<svg width="27" height="37" viewBox="0 0 27 37" fill="none" xmlns="http://www.w3.org/2000/svg">
<path d="M0.79 28.14H1.74V31.08H5.48V28.14H6.43V35H5.48V31.91H1.74V35H0.79V28.14ZM9.9968 35.12C9.19013 35.12 8.58346 34.8967 8.1768 34.45C7.77013 33.9967 7.5668 33.3033 7.5668 32.37C7.5668 31.4367 7.77013 30.7467 8.1768 30.3C8.58346 29.8467 9.19013 29.62 9.9968 29.62C10.8035 29.62 11.4101 29.8467 11.8168 30.3C12.2235 30.7467 12.4268 31.4367 12.4268 32.37C12.4268 33.3033 12.2235 33.9967 11.8168 34.45C11.4101 34.8967 10.8035 35.12 9.9968 35.12ZM9.9968 34.39C10.5301 34.39 10.9168 34.2367 11.1568 33.93C11.3968 33.6167 11.5168 33.11 11.5168 32.41V32.33C11.5168 31.63 11.3968 31.1267 11.1568 30.82C10.9168 30.5067 10.5301 30.35 9.9968 30.35C9.46346 30.35 9.0768 30.5067 8.8368 30.82C8.5968 31.1267 8.4768 31.63 8.4768 32.33V32.41C8.4768 33.11 8.5968 33.6167 8.8368 33.93C9.0768 34.2367 9.46346 34.39 9.9968 34.39ZM13.4434 29.74H14.1134L14.2134 30.45H14.2834C14.6434 29.8967 15.1701 29.62 15.8634 29.62C16.5434 29.62 16.9968 29.8967 17.2234 30.45H17.2834C17.4634 30.1833 17.6968 29.98 17.9834 29.84C18.2768 29.6933 18.5868 29.62 18.9134 29.62C19.9468 29.62 20.4634 30.15 20.4634 31.21V35H19.5834V31.37C19.5834 30.99 19.5001 30.7267 19.3334 30.58C19.1668 30.4267 18.9368 30.35 18.6434 30.35C18.2901 30.35 17.9934 30.49 17.7534 30.77C17.5134 31.05 17.3934 31.4233 17.3934 31.89V35H16.5134V31.37C16.5134 30.99 16.4334 30.7267 16.2734 30.58C16.1134 30.4267 15.8868 30.35 15.5934 30.35C15.3668 30.35 15.1568 30.4133 14.9634 30.54C14.7701 30.66 14.6134 30.8367 14.4934 31.07C14.3801 31.3033 14.3234 31.5767 14.3234 31.89V35H13.4434V29.74ZM24.0035 35.12C23.1568 35.12 22.5268 34.8967 22.1135 34.45C21.7002 34.0033 21.4935 33.31 21.4935 32.37C21.4935 31.43 21.7002 30.7367 22.1135 30.29C22.5268 29.8433 23.1568 29.62 24.0035 29.62C24.7635 29.62 25.3302 29.8233 25.7035 30.23C26.0835 30.63 26.2735 31.2767 26.2735 32.17V32.61H22.4035C22.4368 33.2167 22.5802 33.6667 22.8335 33.96C23.0935 34.2467 23.4835 34.39 24.0035 34.39C24.4235 34.39 24.7635 34.2933 25.0235 34.1C25.2835 33.9067 25.4135 33.61 25.4135 33.21H26.2735C26.2735 33.8233 26.0602 34.2967 25.6335 34.63C25.2135 34.9567 24.6702 35.12 24.0035 35.12ZM25.3535 31.88C25.3535 30.86 24.9035 30.35 24.0035 30.35C23.5035 30.35 23.1268 30.47 22.8735 30.71C22.6268 30.95 22.4768 31.34 22.4235 31.88H25.3535Z" fill="white"/>
<path d="M20.2988 6.17047C20.5835 6.4251 20.8109 6.73726 20.966 7.0863C21.1212 7.43534 21.2005 7.81333 21.1987 8.19529V16.0696C21.1987 16.7856 20.9143 17.4723 20.408 17.9786C19.9017 18.485 19.215 18.7694 18.4989 18.7694H7.69985C6.98383 18.7694 6.29713 18.485 5.79083 17.9786C5.28452 17.4723 5.00009 16.7856 5.00009 16.0696V8.20429C4.99704 7.82082 5.07572 7.4411 5.23089 7.09041C5.38606 6.73972 5.61416 6.42611 5.90001 6.17047M20.2988 6.17047L14.8992 1.43687C14.4043 0.994148 13.7635 0.74939 13.0994 0.74939C12.4353 0.74939 11.7945 0.994148 11.2995 1.43687L5.90001 6.17047M20.2988 6.17047L20.1654 6.31954L14.7674 1.58726L14.7659 1.58595L14.7659 1.58594C14.3076 1.17602 13.7143 0.94939 13.0994 0.94939C12.4845 0.94939 11.8912 1.17602 11.4329 1.58594L11.4314 1.58727L11.4314 1.58726L6.03262 6.32019M20.2988 6.17047L20.1669 6.32086L20.1662 6.32018C20.4294 6.55584 20.6398 6.84463 20.7833 7.16753C20.9269 7.49071 21.0003 7.8407 20.9987 8.19437V8.19529V16.0696C20.9987 16.7326 20.7353 17.3684 20.2665 17.8372C19.7977 18.306 19.1619 18.5694 18.4989 18.5694H7.69985C7.03687 18.5694 6.40105 18.306 5.93225 17.8372C5.46345 17.3684 5.20009 16.7326 5.20009 16.0696L5.20009 8.20429L5.20008 8.2027C5.19726 7.84764 5.27011 7.49604 5.41379 7.17133C5.55733 6.84692 5.76828 6.55677 6.03262 6.32019M5.90001 6.17047L6.03185 6.32086L6.03262 6.32019M5.90001 6.17047L6.03334 6.31954C6.0331 6.31976 6.03286 6.31997 6.03262 6.32019M14.8992 17.1695H15.0992V16.9695V12.4699C15.0992 12.1782 14.9834 11.8984 14.7771 11.6922C14.5708 11.4859 14.291 11.37 13.9993 11.37H12.1995C11.9078 11.37 11.628 11.4859 11.4217 11.6922C11.2154 11.8984 11.0995 12.1782 11.0995 12.4699V16.9695V17.1695H11.2995H14.8992ZM16.4991 16.9695V17.1695H16.6991H18.4989C18.7906 17.1695 19.0704 17.0537 19.2767 16.8474C19.483 16.6411 19.5989 16.3613 19.5989 16.0696V8.19529V8.19504C19.5987 8.03886 19.5652 7.88453 19.5007 7.74229C19.4362 7.60005 19.3422 7.47317 19.2249 7.3701L19.2246 7.36983L13.8253 2.6455C13.8253 2.64549 13.8253 2.64548 13.8253 2.64547C13.6246 2.46915 13.3666 2.37191 13.0994 2.37191C12.8323 2.37191 12.5743 2.46911 12.3736 2.64536C12.3736 2.64541 12.3735 2.64545 12.3734 2.6455L6.9742 7.36983L6.97391 7.3701C6.85658 7.47317 6.76255 7.60005 6.69806 7.74229C6.63358 7.88453 6.60013 8.03887 6.59993 8.19504V8.19529V16.0696C6.59993 16.3613 6.71582 16.6411 6.92209 16.8474C7.12837 17.0537 7.40814 17.1695 7.69985 17.1695H9.4997H9.6997V16.9695V12.4699C9.6997 11.8069 9.96307 11.1711 10.4319 10.7023C10.9007 10.2335 11.5365 9.97016 12.1995 9.97016H13.9993C14.6623 9.97016 15.2981 10.2335 15.7669 10.7023C16.2357 11.1711 16.4991 11.8069 16.4991 12.4699V16.9695Z" fill="white" stroke="black" stroke-width="0.4"/>
<path d="M10 17.5H9.5H7L6.5 16.5V11L6 8.5L11 3.5L12.5 2H13.5L19.5 7L20 8.5V15.5L19.5 16.5L19 17.5H16V15.5L16.5 12.5L15.5 10.5H14.5H12.5H10.5L10 11.5V17.5Z" fill="white" stroke="white"/>
</svg>
